<svg xmlns="http://www.w3.org/2000/svg" width="56" height="56" fill="none" viewBox="0 0 56 56"><circle cx="28" cy="28" r="27.5" fill="#fff" stroke="#000" stroke-opacity=".08"/><path fill="#666" d="M42.0002 33C41.9911 34.436 41.6397 35.8491 40.9753 37.1222C40.3109 38.3953 39.3525 39.4916 38.1796 40.3202C37.0068 41.1488 35.6533 41.6858 34.2314 41.8868C32.8095 42.0877 31.3602 41.9467 30.0037 41.4755C31.3537 40.3637 32.4177 38.9445 33.1063 37.3368C33.7949 35.7292 34.0882 33.9799 33.9615 32.2355C36.2143 30.7733 37.8579 28.541 38.5852 25.9555C39.6492 26.7958 40.5091 27.8661 41.1006 29.0861C41.692 30.3061 41.9995 31.6442 42.0002 33Z"/><path fill="#666" d="M31.9879 33.2405C31.9492 34.7538 31.5293 36.2329 30.767 37.5408C30.0047 38.8487 28.9246 39.943 27.6268 40.7224C26.3291 41.5018 24.8556 41.9411 23.3429 41.9996C21.8302 42.0581 20.3273 41.7339 18.9732 41.057C17.6191 40.3801 16.4578 39.3724 15.5968 38.1273C14.7358 36.8822 14.2029 35.4399 14.0475 33.9341C13.8921 32.4283 14.1193 30.9076 14.708 29.5129C15.2966 28.1183 16.2278 26.8947 17.4151 25.9556C17.8363 27.4285 18.5591 28.7978 19.5377 29.9765C20.5163 31.1553 21.7292 32.1177 23.0995 32.8027C24.4698 33.4877 25.9675 33.8804 27.4977 33.9557C29.0278 34.0311 30.5569 33.7875 31.9879 33.2405Z"/><path fill="#666" d="M19 23C19 21.22 19.5278 19.4799 20.5168 17.9999C21.5057 16.5198 22.9113 15.3663 24.5558 14.6851C26.2004 14.0039 28.01 13.8257 29.7558 14.1729C31.5016 14.5202 33.1053 15.3774 34.364 16.636C35.6226 17.8947 36.4798 19.4984 36.8271 21.2442C37.1743 22.99 36.9961 24.7996 36.3149 26.4442C35.6337 28.0887 34.4802 29.4943 33.0001 30.4832C31.5201 31.4722 29.78 32 28 32C25.6139 31.9974 23.3262 31.0483 21.639 29.361C19.9517 27.6738 19.0026 25.3861 19 23Z"/></svg>