<svg xmlns="http://www.w3.org/2000/svg" width="56" height="56" fill="none" viewBox="0 0 56 56"><circle cx="28" cy="28" r="27.5" fill="#fff" stroke="#000" stroke-opacity=".08"/><rect width="32" height="32" fill="#fff" transform="translate(12 12)"/><path fill="#666" d="M22.6462 38.4933H33.3538C35.5134 38.4933 36.6283 37.3582 36.6283 35.1886V26.1986H29.0949C27.8393 26.1986 27.2366 25.596 27.2366 24.3404V16.7265H22.6462C20.4966 16.7265 19.3716 17.8616 19.3716 20.0413V35.1886C19.3716 37.3582 20.4966 38.4933 22.6462 38.4933ZM29.2857 24.7321H36.5279C36.4676 24.2701 36.1362 23.8382 35.6138 23.3058L30.1194 17.7411C29.6172 17.2288 29.1652 16.8873 28.7031 16.827V24.1495C28.7132 24.5413 28.904 24.7321 29.2857 24.7321ZM24.1027 30.6484C23.6708 30.6484 23.3594 30.337 23.3594 29.9353C23.3594 29.5335 23.6708 29.2221 24.1027 29.2221H31.9274C32.3393 29.2221 32.6607 29.5335 32.6607 29.9353C32.6607 30.337 32.3393 30.6484 31.9274 30.6484H24.1027ZM24.1027 34.4152C23.6708 34.4152 23.3594 34.1038 23.3594 33.702C23.3594 33.3002 23.6708 32.9888 24.1027 32.9888H31.9274C32.3393 32.9888 32.6607 33.3002 32.6607 33.702C32.6607 34.1038 32.3393 34.4152 31.9274 34.4152H24.1027Z"/></svg>